<?xml version="1.0" encoding="UTF-8" standalone="no"?>
<!-- Generator: Adobe Illustrator 16.0.0, SVG Export Plug-In . SVG Version: 6.00 Build 0)  -->

<svg
   xmlns:dc="http://purl.org/dc/elements/1.1/"
   xmlns:cc="http://creativecommons.org/ns#"
   xmlns:rdf="http://www.w3.org/1999/02/22-rdf-syntax-ns#"
   xmlns:svg="http://www.w3.org/2000/svg"
   xmlns="http://www.w3.org/2000/svg"
   xmlns:sodipodi="http://sodipodi.sourceforge.net/DTD/sodipodi-0.dtd"
   xmlns:inkscape="http://www.inkscape.org/namespaces/inkscape"
   version="1.1"
   id="Layer_1"
   x="0px"
   y="0px"
   width="266.893px"
   height="266.895px"
   viewBox="0 0 266.893 266.895"
   enable-background="new 0 0 266.893 266.895"
   xml:space="preserve"
   inkscape:version="0.48.5 r10040"
   sodipodi:docname="icon_facebook.svg"><metadata
     id="metadata3494"><rdf:RDF><cc:Work
         rdf:about=""><dc:format>image/svg+xml</dc:format><dc:type
           rdf:resource="http://purl.org/dc/dcmitype/StillImage" /><dc:title /></cc:Work></rdf:RDF></metadata><defs
     id="defs3492" /><sodipodi:namedview
     pagecolor="#ffffff"
     bordercolor="#666666"
     borderopacity="1"
     objecttolerance="10"
     gridtolerance="10"
     guidetolerance="10"
     inkscape:pageopacity="0"
     inkscape:pageshadow="2"
     inkscape:window-width="1215"
     inkscape:window-height="821"
     id="namedview3490"
     showgrid="false"
     inkscape:zoom="2.0569888"
     inkscape:cx="133.4465"
     inkscape:cy="133.44749"
     inkscape:window-x="0"
     inkscape:window-y="0"
     inkscape:window-maximized="0"
     inkscape:current-layer="Layer_1" /><path
     style="fill:#999999"
     d="M 18.8125 4.59375 C 10.9555 4.59375 4.59375 10.9555 4.59375 18.8125 L 4.59375 248.09375 C 4.59375 255.94875 10.9545 262.3125 18.8125 262.3125 L 142.25 262.3125 L 142.25 162.5 L 108.65625 162.5 L 108.65625 123.59375 L 142.25 123.59375 L 142.25 94.9375 C 142.25 61.650501 162.58625 43.5 192.28125 43.5 C 206.50525 43.5 218.71925 44.55725 222.28125 45.03125 L 222.28125 79.84375 L 201.6875 79.84375 C 185.5395 79.84375 182.40625 87.52025 182.40625 98.78125 L 182.40625 123.59375 L 220.9375 123.59375 L 215.90625 162.5 L 182.40625 162.5 L 182.40625 262.3125 L 248.09375 262.3125 C 255.94775 262.3125 262.3125 255.94975 262.3125 248.09375 L 262.3125 18.8125 C 262.3125 10.9555 255.94875 4.59375 248.09375 4.59375 L 18.8125 4.59375 z "
     transform="translate(-8.1786701e-6,0)"
     id="Blue_1_" /></svg>