<?xml version="1.0" encoding="UTF-8" standalone="no"?>
<!-- Generator: Adobe Illustrator 16.0.0, SVG Export Plug-In . SVG Version: 6.00 Build 0)  -->

<svg
   xmlns:dc="http://purl.org/dc/elements/1.1/"
   xmlns:cc="http://creativecommons.org/ns#"
   xmlns:rdf="http://www.w3.org/1999/02/22-rdf-syntax-ns#"
   xmlns:svg="http://www.w3.org/2000/svg"
   xmlns="http://www.w3.org/2000/svg"
   xmlns:sodipodi="http://sodipodi.sourceforge.net/DTD/sodipodi-0.dtd"
   xmlns:inkscape="http://www.inkscape.org/namespaces/inkscape"
   version="1.1"
   id="Layer_1"
   x="0px"
   y="0px"
   width="134.658px"
   height="131.646px"
   viewBox="0 0 134.658 131.646"
   enable-background="new 0 0 134.658 131.646"
   xml:space="preserve"
   inkscape:version="0.48.5 r10040"
   sodipodi:docname="Google_plus.svg"><metadata
     id="metadata3511"><rdf:RDF><cc:Work
         rdf:about=""><dc:format>image/svg+xml</dc:format><dc:type
           rdf:resource="http://purl.org/dc/dcmitype/StillImage" /><dc:title></dc:title></cc:Work></rdf:RDF></metadata><defs
     id="defs3509" /><sodipodi:namedview
     pagecolor="#ffffff"
     bordercolor="#666666"
     borderopacity="1"
     objecttolerance="10"
     gridtolerance="10"
     guidetolerance="10"
     inkscape:pageopacity="0"
     inkscape:pageshadow="2"
     inkscape:window-width="1247"
     inkscape:window-height="834"
     id="namedview3507"
     showgrid="false"
     inkscape:zoom="1.7926865"
     inkscape:cx="67.329002"
     inkscape:cy="65.822998"
     inkscape:window-x="0"
     inkscape:window-y="0"
     inkscape:window-maximized="0"
     inkscape:current-layer="Layer_1" /><path
     style="fill:#999999"
     d="M 8.15625 4.09375 C 5.9792501 4.09375 4.21875 5.8875001 4.21875 8.0625 L 4.21875 123.59375 C 4.21875 125.77275 5.9792501 127.53125 8.15625 127.53125 L 126.5 127.53125 C 128.677 127.53125 130.46875 125.77175 130.46875 123.59375 L 130.46875 8.0625 C 130.46875 5.8865001 128.676 4.09375 126.5 4.09375 L 8.15625 4.09375 z M 60.40625 23.34375 L 82.1875 23.34375 L 75 27.875 L 68.15625 27.875 C 70.69625 29.977 76 34.3895 76 42.8125 C 76 51.0035 71.35875 54.9105 66.71875 58.5625 C 65.27875 59.9995 63.625 61.559 63.625 64 C 63.625 66.431 65.287 67.744 66.5 68.75 L 70.46875 71.84375 C 75.33375 75.94175 79.751 79.724 79.75 87.375 C 79.75 97.788 69.697499 108.28125 50.6875 108.28125 C 34.6565 108.28125 26.9375 100.6395 26.9375 92.4375 C 26.9375 88.4525 28.9145 82.8165 35.4375 78.9375 C 42.2865 74.7275 51.5855 74.18575 56.5625 73.84375 C 55.0085 71.85075 53.25 69.7435 53.25 66.3125 C 53.25 64.4315 53.79675 63.331 54.34375 62 C 53.12575 62.113 51.9185 62.21875 50.8125 62.21875 C 39.0995 62.21875 32.46875 53.4515 32.46875 44.8125 C 32.46875 39.7235 34.77925 34.06875 39.53125 29.96875 C 45.83625 24.76375 54.43025 23.34375 60.40625 23.34375 z M 52.34375 27.53125 C 49.46075 27.53125 46.398 28.9695 44.625 31.1875 C 42.744 33.5165 42.1875 36.51825 42.1875 39.40625 C 42.1875 46.82425 46.49 59.09375 56 59.09375 C 58.762 59.09375 61.722 57.774 63.5 56 C 66.042 53.443 66.28125 49.90225 66.28125 47.90625 C 66.28125 39.92825 61.51175 27.53125 52.34375 27.53125 z M 92.9375 47.875 L 98.40625 47.875 L 98.40625 58.9375 L 109.5 58.9375 L 109.5 64.46875 L 98.40625 64.46875 L 98.40625 75.625 L 92.9375 75.625 L 92.9375 64.46875 L 81.875 64.46875 L 81.875 58.9375 L 92.9375 58.9375 L 92.9375 47.875 z M 57.78125 76.9375 C 56.78525 76.9375 50.79625 77.15775 46.15625 78.71875 C 43.72325 79.59975 36.65625 82.261 36.65625 90.125 C 36.65625 97.991 44.26775 103.65625 56.09375 103.65625 C 66.70775 103.65625 72.375 98.5465 72.375 91.6875 C 72.375 86.0235 68.7195 83.0455 60.3125 77.0625 C 59.4325 76.9515 58.88625 76.9375 57.78125 76.9375 z "
     id="path3499"
     transform="translate(-4.3781828e-6,0)" /></svg>