<?xml version="1.0" encoding="UTF-8" standalone="no"?>
<!-- Created with Inkscape (http://www.inkscape.org/) -->

<svg
   xmlns:dc="http://purl.org/dc/elements/1.1/"
   xmlns:cc="http://creativecommons.org/ns#"
   xmlns:rdf="http://www.w3.org/1999/02/22-rdf-syntax-ns#"
   xmlns:svg="http://www.w3.org/2000/svg"
   xmlns="http://www.w3.org/2000/svg"
   xmlns:sodipodi="http://sodipodi.sourceforge.net/DTD/sodipodi-0.dtd"
   xmlns:inkscape="http://www.inkscape.org/namespaces/inkscape"
   width="482.68985"
   height="114.40563"
   id="svg2"
   version="1.1"
   inkscape:version="0.48.5 r10040"
   sodipodi:docname="motivate-banner.svg"
   inkscape:export-filename="/Users/robertdalton/web-projects/ghost-themes/motivate/assets/development/motivate-banner.png"
   inkscape:export-xdpi="226.43132"
   inkscape:export-ydpi="226.43132">
  <defs
     id="defs4" />
  <sodipodi:namedview
     id="base"
     pagecolor="#ffffff"
     bordercolor="#666666"
     borderopacity="1.0"
     inkscape:pageopacity="0.0"
     inkscape:pageshadow="2"
     inkscape:zoom="0.98994949"
     inkscape:cx="235.38063"
     inkscape:cy="95.897253"
     inkscape:document-units="px"
     inkscape:current-layer="layer1"
     showgrid="false"
     showguides="true"
     inkscape:guide-bbox="true"
     inkscape:window-width="1001"
     inkscape:window-height="785"
     inkscape:window-x="74"
     inkscape:window-y="0"
     inkscape:window-maximized="0"
     fit-margin-top="0"
     fit-margin-left="0"
     fit-margin-right="0"
     fit-margin-bottom="0" />
  <metadata
     id="metadata7">
    <rdf:RDF>
      <cc:Work
         rdf:about="">
        <dc:format>image/svg+xml</dc:format>
        <dc:type
           rdf:resource="http://purl.org/dc/dcmitype/StillImage" />
        <dc:title></dc:title>
      </cc:Work>
    </rdf:RDF>
  </metadata>
  <g
     inkscape:label="Layer 1"
     inkscape:groupmode="layer"
     id="layer1"
     transform="translate(-99.071313,-431.78269)">
    <g
       id="g3036"
       transform="matrix(1,0,0,0.77041987,17.004965,117.88193)">
      <g
         id="g3866"
         style="font-size:40px;font-style:normal;font-variant:normal;font-weight:normal;font-stretch:normal;text-align:start;line-height:125%;letter-spacing:0px;word-spacing:0px;writing-mode:lr-tb;text-anchor:start;fill:#c8b7b7;fill-opacity:1;stroke:none;font-family:Aleo;-inkscape-font-specification:Aleo"
         transform="matrix(1.6784334,0,1.6784233,0.41799666,-697.12364,347.60856)">
        <path
           id="path3868"
           style="font-size:72px;fill:#c8b7b7;font-family:Aller Display;-inkscape-font-specification:Aller Display"
           d="m 134.3945,344.73887 c 1.00799,-0.14395 2.08799,-0.26395 3.24,-0.36 1.19999,-0.14395 2.30399,-0.21595 3.312,-0.216 0.95999,5e-5 1.99199,0.072 3.096,0.216 1.15198,0.096 2.20798,0.21605 3.168,0.36 l 10.224,26.784 10.584,-26.784 c 0.95996,-0.14395 1.91996,-0.26395 2.88,-0.36 1.00796,-0.14395 1.99196,-0.21595 2.952,-0.216 1.00795,5e-5 2.03995,0.072 3.096,0.216 1.05595,0.096 2.08795,0.21605 3.096,0.36 l 2.448,51.408 c -0.76805,0.144 -1.63205,0.288 -2.592,0.432 -0.91205,0.144 -2.13605,0.216 -3.672,0.216 -1.68005,0 -3.67204,-0.216 -5.976,-0.648 l -1.008,-29.808 -7.92,19.656 c -0.86403,0.14401 -1.72803,0.26401 -2.592,0.36 -0.86403,0.096 -1.65603,0.14401 -2.376,0.144 -0.72003,10e-6 -1.46403,-0.024 -2.232,-0.072 -0.76802,-0.096 -1.56002,-0.23999 -2.376,-0.432 l -7.056,-19.368 -0.792,29.52 c -2.01601,0.432 -3.93601,0.648 -5.76,0.648 -1.68001,0 -3.62401,-0.216 -5.832,-0.648 l 2.088,-51.408"
           inkscape:connector-curvature="0" />
      </g>
      <g
         transform="matrix(-1.6784334,0,-1.6784233,0.41799666,1161.2563,347.60856)"
         style="font-size:40px;font-style:normal;font-variant:normal;font-weight:normal;font-stretch:normal;text-align:start;line-height:125%;letter-spacing:0px;word-spacing:0px;writing-mode:lr-tb;text-anchor:start;fill:#c8b7b7;fill-opacity:1;stroke:none;font-family:Aleo;-inkscape-font-specification:Aleo"
         id="g3850">
        <path
           inkscape:connector-curvature="0"
           d="m 134.3945,344.73887 c 1.00799,-0.14395 2.08799,-0.26395 3.24,-0.36 1.19999,-0.14395 2.30399,-0.21595 3.312,-0.216 0.95999,5e-5 1.99199,0.072 3.096,0.216 1.15198,0.096 2.20798,0.21605 3.168,0.36 l 10.224,26.784 10.584,-26.784 c 0.95996,-0.14395 1.91996,-0.26395 2.88,-0.36 1.00796,-0.14395 1.99196,-0.21595 2.952,-0.216 1.00795,5e-5 2.03995,0.072 3.096,0.216 1.05595,0.096 2.08795,0.21605 3.096,0.36 l 2.448,51.408 c -0.76805,0.144 -1.63205,0.288 -2.592,0.432 -0.91205,0.144 -2.13605,0.216 -3.672,0.216 -1.68005,0 -3.67204,-0.216 -5.976,-0.648 l -1.008,-29.808 -7.92,19.656 c -0.86403,0.14401 -1.72803,0.26401 -2.592,0.36 -0.86403,0.096 -1.65603,0.14401 -2.376,0.144 -0.72003,10e-6 -1.46403,-0.024 -2.232,-0.072 -0.76802,-0.096 -1.56002,-0.23999 -2.376,-0.432 l -7.056,-19.368 -0.792,29.52 c -2.01601,0.432 -3.93601,0.648 -5.76,0.648 -1.68001,0 -3.62401,-0.216 -5.832,-0.648 l 2.088,-51.408"
           style="font-size:72px;fill:#c8b7b7;font-family:Aller Display;-inkscape-font-specification:Aller Display"
           id="path3852" />
      </g>
    </g>
    <g
       id="g3030"
       transform="translate(2.1064647,0)">
      <g
         transform="matrix(2.0213353,0,2.0213231,-0.62699498,-871.52014,761.97671)"
         style="font-size:40px;font-style:normal;font-variant:normal;font-weight:normal;font-stretch:normal;text-align:start;line-height:125%;letter-spacing:0px;word-spacing:0px;writing-mode:lr-tb;text-anchor:start;fill:#e3dbdb;fill-opacity:1;stroke:none;font-family:Aleo;-inkscape-font-specification:Aleo"
         id="g3862">
        <path
           inkscape:connector-curvature="0"
           d="m 134.3945,344.73887 c 1.00799,-0.14395 2.08799,-0.26395 3.24,-0.36 1.19999,-0.14395 2.30399,-0.21595 3.312,-0.216 0.95999,5e-5 1.99199,0.072 3.096,0.216 1.15198,0.096 2.20798,0.21605 3.168,0.36 l 10.224,26.784 10.584,-26.784 c 0.95996,-0.14395 1.91996,-0.26395 2.88,-0.36 1.00796,-0.14395 1.99196,-0.21595 2.952,-0.216 1.00795,5e-5 2.03995,0.072 3.096,0.216 1.05595,0.096 2.08795,0.21605 3.096,0.36 l 2.448,51.408 c -0.76805,0.144 -1.63205,0.288 -2.592,0.432 -0.91205,0.144 -2.13605,0.216 -3.672,0.216 -1.68005,0 -3.67204,-0.216 -5.976,-0.648 l -1.008,-29.808 -7.92,19.656 c -0.86403,0.14401 -1.72803,0.26401 -2.592,0.36 -0.86403,0.096 -1.65603,0.14401 -2.376,0.144 -0.72003,10e-6 -1.46403,-0.024 -2.232,-0.072 -0.76802,-0.096 -1.56002,-0.23999 -2.376,-0.432 l -7.056,-19.368 -0.792,29.52 c -2.01601,0.432 -3.93601,0.648 -5.76,0.648 -1.68001,0 -3.62401,-0.216 -5.832,-0.648 l 2.088,-51.408"
           style="font-size:72px;fill:#e3dbdb;font-family:Aller Display;-inkscape-font-specification:Aller Display"
           id="path3864" />
      </g>
      <g
         id="g3858"
         style="font-size:40px;font-style:normal;font-variant:normal;font-weight:normal;font-stretch:normal;text-align:start;line-height:125%;letter-spacing:0px;word-spacing:0px;writing-mode:lr-tb;text-anchor:start;fill:#e3dbdb;fill-opacity:1;stroke:none;font-family:Aleo;-inkscape-font-specification:Aleo"
         transform="matrix(-2.0213353,0,-2.0213231,-0.62699498,1365.4498,761.97671)">
        <path
           id="path3860"
           style="font-size:72px;fill:#e3dbdb;font-family:Aller Display;-inkscape-font-specification:Aller Display"
           d="m 134.3945,344.73887 c 1.00799,-0.14395 2.08799,-0.26395 3.24,-0.36 1.19999,-0.14395 2.30399,-0.21595 3.312,-0.216 0.95999,5e-5 1.99199,0.072 3.096,0.216 1.15198,0.096 2.20798,0.21605 3.168,0.36 l 10.224,26.784 10.584,-26.784 c 0.95996,-0.14395 1.91996,-0.26395 2.88,-0.36 1.00796,-0.14395 1.99196,-0.21595 2.952,-0.216 1.00795,5e-5 2.03995,0.072 3.096,0.216 1.05595,0.096 2.08795,0.21605 3.096,0.36 l 2.448,51.408 c -0.76805,0.144 -1.63205,0.288 -2.592,0.432 -0.91205,0.144 -2.13605,0.216 -3.672,0.216 -1.68005,0 -3.67204,-0.216 -5.976,-0.648 l -1.008,-29.808 -7.92,19.656 c -0.86403,0.14401 -1.72803,0.26401 -2.592,0.36 -0.86403,0.096 -1.65603,0.14401 -2.376,0.144 -0.72003,10e-6 -1.46403,-0.024 -2.232,-0.072 -0.76802,-0.096 -1.56002,-0.23999 -2.376,-0.432 l -7.056,-19.368 -0.792,29.52 c -2.01601,0.432 -3.93601,0.648 -5.76,0.648 -1.68001,0 -3.62401,-0.216 -5.832,-0.648 l 2.088,-51.408"
           inkscape:connector-curvature="0" />
      </g>
    </g>
    <flowRoot
       xml:space="preserve"
       id="flowRoot3042"
       style="font-size:40px;font-style:normal;font-variant:normal;font-weight:900;font-stretch:normal;text-align:start;line-height:125%;letter-spacing:0px;word-spacing:0px;writing-mode:lr-tb;text-anchor:start;fill:#501616;fill-opacity:1;stroke:none;font-family:Lato;-inkscape-font-specification:Lato Heavy"
       transform="matrix(2.8083028,0,0,2.8083028,136.74269,582.77109)"><flowRegion
         id="flowRegion3044"><rect
           id="rect3046"
           width="69.19545"
           height="64.649765"
           x="21.213203"
           y="-65.753845"
           style="font-size:40px;font-style:normal;font-variant:normal;font-weight:900;font-stretch:normal;text-align:start;line-height:125%;writing-mode:lr-tb;text-anchor:start;fill:#501616;fill-opacity:1;font-family:Lato;-inkscape-font-specification:Lato Heavy" /></flowRegion><flowPara
         id="flowPara3048">M</flowPara></flowRoot>    <text
       xml:space="preserve"
       style="font-size:40px;font-style:normal;font-variant:normal;font-weight:normal;font-stretch:normal;text-align:start;line-height:125%;letter-spacing:0px;word-spacing:0px;writing-mode:lr-tb;text-anchor:start;fill:#000000;fill-opacity:1;stroke:none;font-family:Aleo;-inkscape-font-specification:Aleo"
       x="300.09167"
       y="512.88062"
       id="text3818"
       sodipodi:linespacing="125%"><tspan
         sodipodi:role="line"
         id="tspan3820"
         x="300.09167"
         y="512.88062"
         style="font-size:92px;font-style:normal;font-variant:normal;font-weight:normal;font-stretch:normal;fill:#501616;fill-opacity:1;font-family:Lato;-inkscape-font-specification:Lato">otivate</tspan></text>
  </g>
</svg>
